<svg xmlns="http://www.w3.org/2000/svg" width="184" height="74" viewBox="0 0 184 74"><g transform="translate(-67 -31)"><g transform="translate(-273)"><text transform="translate(482 76)" fill="#138e92" font-size="30" font-family="Montserrat-SemiBold, Montserrat" font-weight="600"><tspan x="0" y="0">rts</tspan></text><path d="M37,74a36.914,36.914,0,0,1-24.808-9.548H18.5a4.178,4.178,0,0,0,.784-8.281l-.058-.028c-.762-.364-2.785-1.332-2.853-3.665a3.041,3.041,0,0,1,1.193-2.591A5.458,5.458,0,0,1,19.337,49a1.062,1.062,0,0,0,.19-.069h6.134a4.177,4.177,0,1,0,0-8.355H.171C.057,39.4,0,38.2,0,37A36.846,36.846,0,0,1,4.646,19.035a4.215,4.215,0,0,0,.725.062H32.822a4.177,4.177,0,1,0,0-8.355H10.931A36.981,36.981,0,0,1,54.205,4.236a37.31,37.31,0,0,1,12.921,11.28H61.467a5.371,5.371,0,0,0,0,10.742h9.549a5.412,5.412,0,0,0,1.347-.17,37.154,37.154,0,0,1-1.238,25.234h-5.48a2.387,2.387,0,0,0,0,4.774H68.7A37.228,37.228,0,0,1,55.462,69.072,36.818,36.818,0,0,1,37,74Zm5.371-23.871A5.371,5.371,0,1,0,47.742,55.5,5.377,5.377,0,0,0,42.371,50.129ZM35.21,26.258a2.984,2.984,0,1,0,0,5.968h9.548a2.984,2.984,0,1,0,0-5.968Z" transform="translate(405 31)" fill="#11004a"/></g><text transform="translate(67 78)" fill="#138e92" font-size="30" font-family="Montserrat-SemiBold, Montserrat" font-weight="600"><tspan x="0" y="0">Rep</tspan></text></g></svg>